<mxfile host="app.diagrams.net" agent="Mozilla/5.0 (X11; Linux x86_64) AppleWebKit/537.36 (KHTML, like Gecko) Chrome/129.0.0.0 Safari/537.36" version="24.7.16">
  <diagram name="Página-1" id="ReMHE6c-L-lrRTkhRMun">
    <mxGraphModel grid="1" page="1" gridSize="10" guides="1" tooltips="1" connect="1" arrows="1" fold="1" pageScale="1" pageWidth="1169" pageHeight="827" math="0" shadow="0">
      <root>
        <mxCell id="0" />
        <mxCell id="1" parent="0" />
        <mxCell id="qgzRwup3HeDBknNR_gVY-2" value="Invernadero" style="swimlane;startSize=20;horizontal=0;childLayout=treeLayout;horizontalTree=1;sortEdges=1;resizable=0;containerType=tree;fontSize=12;" vertex="1" parent="1">
          <mxGeometry x="50" y="-778" width="310" height="250" as="geometry" />
        </mxCell>
        <mxCell id="qgzRwup3HeDBknNR_gVY-3" value="Planta (Invernadero)" style="whiteSpace=wrap;html=1;fillColor=#00FF00;" vertex="1" parent="qgzRwup3HeDBknNR_gVY-2">
          <mxGeometry x="40" y="105" width="100" height="40" as="geometry" />
        </mxCell>
        <mxCell id="qgzRwup3HeDBknNR_gVY-4" value="Humedad&lt;div&gt;Temperatura&lt;/div&gt;&lt;div&gt;Luz&lt;/div&gt;&lt;div&gt;CO2&lt;/div&gt;&lt;div&gt;PH&lt;/div&gt;&lt;div&gt;Direccion del viento&lt;/div&gt;&lt;div&gt;Presion Barometrica&lt;/div&gt;" style="whiteSpace=wrap;html=1;fillColor=#33FFFF;" vertex="1" parent="qgzRwup3HeDBknNR_gVY-2">
          <mxGeometry x="190" y="20" width="100" height="130" as="geometry" />
        </mxCell>
        <mxCell id="qgzRwup3HeDBknNR_gVY-5" value="" style="edgeStyle=elbowEdgeStyle;elbow=horizontal;html=1;rounded=1;curved=0;sourcePerimeterSpacing=0;targetPerimeterSpacing=0;startSize=6;endSize=6;" edge="1" parent="qgzRwup3HeDBknNR_gVY-2" source="qgzRwup3HeDBknNR_gVY-3" target="qgzRwup3HeDBknNR_gVY-4">
          <mxGeometry relative="1" as="geometry" />
        </mxCell>
        <mxCell id="qgzRwup3HeDBknNR_gVY-6" value="Señal de control riego" style="whiteSpace=wrap;html=1;fillColor=#FF9933;" vertex="1" parent="qgzRwup3HeDBknNR_gVY-2">
          <mxGeometry x="190" y="190" width="100" height="40" as="geometry" />
        </mxCell>
        <mxCell id="qgzRwup3HeDBknNR_gVY-7" value="" style="edgeStyle=elbowEdgeStyle;elbow=horizontal;html=1;rounded=1;curved=0;sourcePerimeterSpacing=0;targetPerimeterSpacing=0;startSize=6;endSize=6;" edge="1" parent="qgzRwup3HeDBknNR_gVY-2" source="qgzRwup3HeDBknNR_gVY-3" target="qgzRwup3HeDBknNR_gVY-6">
          <mxGeometry relative="1" as="geometry" />
        </mxCell>
        <mxCell id="qgzRwup3HeDBknNR_gVY-17" value="" style="endArrow=classic;html=1;rounded=0;exitX=1.01;exitY=0.536;exitDx=0;exitDy=0;exitPerimeter=0;entryX=0.5;entryY=0;entryDx=0;entryDy=0;edgeStyle=orthogonalEdgeStyle;curved=1;" edge="1" parent="1" source="qgzRwup3HeDBknNR_gVY-4" target="qgzRwup3HeDBknNR_gVY-21">
          <mxGeometry relative="1" as="geometry">
            <mxPoint x="400" y="-468" as="sourcePoint" />
            <mxPoint x="490" y="-763" as="targetPoint" />
            <Array as="points">
              <mxPoint x="430" y="-688" />
              <mxPoint x="430" y="-738" />
              <mxPoint x="570" y="-738" />
            </Array>
          </mxGeometry>
        </mxCell>
        <mxCell id="qgzRwup3HeDBknNR_gVY-18" value="Comunicacion via&amp;nbsp;&lt;div&gt;LoraWAN&lt;/div&gt;" style="edgeLabel;resizable=0;html=1;;align=center;verticalAlign=middle;" connectable="0" vertex="1" parent="qgzRwup3HeDBknNR_gVY-17">
          <mxGeometry relative="1" as="geometry">
            <mxPoint x="-25" y="30" as="offset" />
          </mxGeometry>
        </mxCell>
        <mxCell id="qgzRwup3HeDBknNR_gVY-20" value="Gateway" style="swimlane;startSize=20;horizontal=0;childLayout=treeLayout;horizontalTree=1;sortEdges=1;resizable=0;containerType=tree;fontSize=12;" vertex="1" parent="1">
          <mxGeometry x="480" y="-768" width="310" height="160" as="geometry" />
        </mxCell>
        <mxCell id="qgzRwup3HeDBknNR_gVY-21" value="NodeRed" style="whiteSpace=wrap;html=1;fillColor=#FF3333;" vertex="1" parent="qgzRwup3HeDBknNR_gVY-20">
          <mxGeometry x="40" y="60" width="100" height="40" as="geometry" />
        </mxCell>
        <mxCell id="qgzRwup3HeDBknNR_gVY-22" value="dashboard" style="whiteSpace=wrap;html=1;fillColor=#99FFCC;" vertex="1" parent="qgzRwup3HeDBknNR_gVY-20">
          <mxGeometry x="190" y="20" width="100" height="40" as="geometry" />
        </mxCell>
        <mxCell id="qgzRwup3HeDBknNR_gVY-23" value="" style="edgeStyle=elbowEdgeStyle;elbow=horizontal;html=1;rounded=1;curved=0;sourcePerimeterSpacing=0;targetPerimeterSpacing=0;startSize=6;endSize=6;startArrow=classic;startFill=1;" edge="1" parent="qgzRwup3HeDBknNR_gVY-20" source="qgzRwup3HeDBknNR_gVY-21" target="qgzRwup3HeDBknNR_gVY-22">
          <mxGeometry relative="1" as="geometry" />
        </mxCell>
        <mxCell id="qgzRwup3HeDBknNR_gVY-24" value="cliente mqtt" style="whiteSpace=wrap;html=1;fillColor=#FF9999;" vertex="1" parent="qgzRwup3HeDBknNR_gVY-20">
          <mxGeometry x="190" y="100" width="100" height="40" as="geometry" />
        </mxCell>
        <mxCell id="qgzRwup3HeDBknNR_gVY-25" value="" style="edgeStyle=elbowEdgeStyle;elbow=horizontal;html=1;rounded=1;curved=0;sourcePerimeterSpacing=0;targetPerimeterSpacing=0;startSize=6;endSize=6;startArrow=classic;startFill=1;" edge="1" parent="qgzRwup3HeDBknNR_gVY-20" source="qgzRwup3HeDBknNR_gVY-21" target="qgzRwup3HeDBknNR_gVY-24">
          <mxGeometry relative="1" as="geometry" />
        </mxCell>
        <mxCell id="qgzRwup3HeDBknNR_gVY-28" value="IOT" style="swimlane;startSize=20;horizontal=0;childLayout=treeLayout;horizontalTree=1;sortEdges=1;resizable=0;containerType=tree;fontSize=12;direction=east;" vertex="1" parent="1">
          <mxGeometry x="390" y="-438" width="310" height="180" as="geometry" />
        </mxCell>
        <mxCell id="qgzRwup3HeDBknNR_gVY-29" value="Broker MQTT:&lt;div&gt;Mosquitto&lt;/div&gt;&lt;div&gt;EMQX&lt;/div&gt;&lt;div&gt;Azure&lt;/div&gt;" style="whiteSpace=wrap;html=1;fillColor=#FF9999;" vertex="1" parent="qgzRwup3HeDBknNR_gVY-28">
          <mxGeometry x="40" y="60" width="100" height="60" as="geometry" />
        </mxCell>
        <mxCell id="qgzRwup3HeDBknNR_gVY-30" value="Proceso para escribir en base de datos" style="whiteSpace=wrap;html=1;fillColor=#FFFF66;" vertex="1" parent="qgzRwup3HeDBknNR_gVY-28">
          <mxGeometry x="190" y="20" width="100" height="50" as="geometry" />
        </mxCell>
        <mxCell id="qgzRwup3HeDBknNR_gVY-31" value="" style="edgeStyle=elbowEdgeStyle;elbow=horizontal;html=1;rounded=1;curved=0;sourcePerimeterSpacing=0;targetPerimeterSpacing=0;startSize=6;endSize=6;" edge="1" parent="qgzRwup3HeDBknNR_gVY-28" source="qgzRwup3HeDBknNR_gVY-29" target="qgzRwup3HeDBknNR_gVY-30">
          <mxGeometry relative="1" as="geometry" />
        </mxCell>
        <mxCell id="qgzRwup3HeDBknNR_gVY-70" value="Servidor Websockets" style="whiteSpace=wrap;html=1;fillColor=#FFFF66;" vertex="1" parent="qgzRwup3HeDBknNR_gVY-28">
          <mxGeometry x="190" y="110" width="100" height="50" as="geometry" />
        </mxCell>
        <mxCell id="qgzRwup3HeDBknNR_gVY-71" value="" style="edgeStyle=elbowEdgeStyle;elbow=horizontal;html=1;rounded=1;curved=0;sourcePerimeterSpacing=0;targetPerimeterSpacing=0;startSize=6;endSize=6;exitX=1;exitY=0.5;exitDx=0;exitDy=0;entryX=0;entryY=0.5;entryDx=0;entryDy=0;startArrow=classic;startFill=1;" edge="1" parent="qgzRwup3HeDBknNR_gVY-28" source="qgzRwup3HeDBknNR_gVY-29" target="qgzRwup3HeDBknNR_gVY-70">
          <mxGeometry relative="1" as="geometry">
            <mxPoint x="150" y="60" as="sourcePoint" />
            <mxPoint x="200" y="60" as="targetPoint" />
          </mxGeometry>
        </mxCell>
        <mxCell id="qgzRwup3HeDBknNR_gVY-34" value="" style="endArrow=classic;html=1;rounded=0;entryX=0.5;entryY=0;entryDx=0;entryDy=0;edgeStyle=orthogonalEdgeStyle;curved=1;startArrow=classic;startFill=1;exitX=0.5;exitY=1;exitDx=0;exitDy=0;" edge="1" parent="1" source="qgzRwup3HeDBknNR_gVY-24" target="qgzRwup3HeDBknNR_gVY-29">
          <mxGeometry relative="1" as="geometry">
            <mxPoint x="700" y="-538" as="sourcePoint" />
            <mxPoint x="595" y="-392" as="targetPoint" />
            <Array as="points">
              <mxPoint x="720" y="-538" />
              <mxPoint x="480" y="-538" />
            </Array>
          </mxGeometry>
        </mxCell>
        <mxCell id="qgzRwup3HeDBknNR_gVY-35" value="Comunicacion via&lt;div&gt;MQTT&lt;/div&gt;" style="edgeLabel;resizable=0;html=1;;align=center;verticalAlign=middle;" connectable="0" vertex="1" parent="qgzRwup3HeDBknNR_gVY-34">
          <mxGeometry relative="1" as="geometry">
            <mxPoint x="30" as="offset" />
          </mxGeometry>
        </mxCell>
        <mxCell id="E5JlNRnUBhVRI6DktgL6-3" style="edgeStyle=orthogonalEdgeStyle;curved=1;rounded=0;orthogonalLoop=1;jettySize=auto;html=1;exitX=0.5;exitY=1;exitDx=0;exitDy=0;" edge="1" parent="1" source="qgzRwup3HeDBknNR_gVY-36" target="v0rlY0u3KarLFHfXOZ2J-19">
          <mxGeometry relative="1" as="geometry" />
        </mxCell>
        <mxCell id="qgzRwup3HeDBknNR_gVY-36" value="Postgres" style="shape=datastore;whiteSpace=wrap;html=1;fillColor=#0066CC;" vertex="1" parent="1">
          <mxGeometry x="935" y="-688" width="80" height="70" as="geometry" />
        </mxCell>
        <mxCell id="qgzRwup3HeDBknNR_gVY-41" value="" style="endArrow=classic;html=1;rounded=0;exitX=1;exitY=0.5;exitDx=0;exitDy=0;entryX=0.01;entryY=0.583;entryDx=0;entryDy=0;entryPerimeter=0;edgeStyle=orthogonalEdgeStyle;curved=1;" edge="1" parent="1" source="qgzRwup3HeDBknNR_gVY-30" target="qgzRwup3HeDBknNR_gVY-36">
          <mxGeometry relative="1" as="geometry">
            <mxPoint x="820" y="-348" as="sourcePoint" />
            <mxPoint x="920" y="-348" as="targetPoint" />
          </mxGeometry>
        </mxCell>
        <mxCell id="qgzRwup3HeDBknNR_gVY-42" value="Método POST&lt;div&gt;cada 5 minutos&lt;/div&gt;" style="edgeLabel;resizable=0;html=1;;align=center;verticalAlign=middle;" connectable="0" vertex="1" parent="qgzRwup3HeDBknNR_gVY-41">
          <mxGeometry relative="1" as="geometry" />
        </mxCell>
        <mxCell id="qgzRwup3HeDBknNR_gVY-43" value="UI Gemelo Digital" style="swimlane;startSize=20;horizontal=0;childLayout=treeLayout;horizontalTree=1;sortEdges=1;resizable=0;containerType=tree;fontSize=12;" vertex="1" parent="1">
          <mxGeometry x="390" y="-208" width="310" height="128" as="geometry" />
        </mxCell>
        <mxCell id="qgzRwup3HeDBknNR_gVY-44" value="Servicio para servir contenido estatico" style="whiteSpace=wrap;html=1;fillColor=#FFFF66;" vertex="1" parent="qgzRwup3HeDBknNR_gVY-43">
          <mxGeometry x="40" y="20" width="100" height="88.11" as="geometry" />
        </mxCell>
        <mxCell id="qgzRwup3HeDBknNR_gVY-45" value="Gemelo Digital Godot" style="whiteSpace=wrap;html=1;fillColor=#66B2FF;" vertex="1" parent="qgzRwup3HeDBknNR_gVY-43">
          <mxGeometry x="190" y="21.314999999999998" width="100" height="85.48" as="geometry" />
        </mxCell>
        <mxCell id="qgzRwup3HeDBknNR_gVY-46" value="" style="edgeStyle=elbowEdgeStyle;elbow=horizontal;html=1;rounded=1;curved=0;sourcePerimeterSpacing=0;targetPerimeterSpacing=0;startSize=6;endSize=6;" edge="1" parent="qgzRwup3HeDBknNR_gVY-43" source="qgzRwup3HeDBknNR_gVY-44" target="qgzRwup3HeDBknNR_gVY-45">
          <mxGeometry relative="1" as="geometry" />
        </mxCell>
        <mxCell id="qgzRwup3HeDBknNR_gVY-51" value="WebSite" style="swimlane;startSize=20;horizontal=0;childLayout=treeLayout;horizontalTree=1;sortEdges=1;resizable=0;containerType=tree;fontSize=12;" vertex="1" parent="1">
          <mxGeometry x="50" y="-351" width="310" height="80" as="geometry" />
        </mxCell>
        <mxCell id="qgzRwup3HeDBknNR_gVY-52" value="Github&amp;nbsp;&lt;div&gt;Pages&lt;/div&gt;" style="whiteSpace=wrap;html=1;fillColor=#FFFF66;" vertex="1" parent="qgzRwup3HeDBknNR_gVY-51">
          <mxGeometry x="40" y="20" width="100" height="40" as="geometry" />
        </mxCell>
        <mxCell id="qgzRwup3HeDBknNR_gVY-53" value="Frontend" style="whiteSpace=wrap;html=1;fillColor=#66B2FF;" vertex="1" parent="qgzRwup3HeDBknNR_gVY-51">
          <mxGeometry x="190" y="20" width="100" height="40" as="geometry" />
        </mxCell>
        <mxCell id="qgzRwup3HeDBknNR_gVY-54" value="" style="edgeStyle=elbowEdgeStyle;elbow=horizontal;html=1;rounded=1;curved=0;sourcePerimeterSpacing=0;targetPerimeterSpacing=0;startSize=6;endSize=6;" edge="1" parent="qgzRwup3HeDBknNR_gVY-51" source="qgzRwup3HeDBknNR_gVY-52" target="qgzRwup3HeDBknNR_gVY-53">
          <mxGeometry relative="1" as="geometry" />
        </mxCell>
        <mxCell id="qgzRwup3HeDBknNR_gVY-57" value="Enlace/ Link a ..." style="endArrow=classic;html=1;rounded=0;exitX=0.5;exitY=1;exitDx=0;exitDy=0;edgeStyle=orthogonalEdgeStyle;curved=1;entryX=0.5;entryY=1;entryDx=0;entryDy=0;" edge="1" parent="1" source="qgzRwup3HeDBknNR_gVY-53" target="qgzRwup3HeDBknNR_gVY-45">
          <mxGeometry x="-0.5407" y="10" relative="1" as="geometry">
            <mxPoint x="260" y="-18" as="sourcePoint" />
            <mxPoint x="360" y="-18" as="targetPoint" />
            <Array as="points">
              <mxPoint x="290" y="-48" />
              <mxPoint x="630" y="-48" />
            </Array>
            <mxPoint as="offset" />
          </mxGeometry>
        </mxCell>
        <mxCell id="qgzRwup3HeDBknNR_gVY-59" value="Analisis de datos" style="swimlane;startSize=20;horizontal=0;childLayout=treeLayout;horizontalTree=1;sortEdges=1;resizable=0;containerType=tree;fontSize=12;" vertex="1" parent="1">
          <mxGeometry x="810" y="-208" width="310" height="110" as="geometry" />
        </mxCell>
        <mxCell id="qgzRwup3HeDBknNR_gVY-60" value="JupyterLab" style="whiteSpace=wrap;html=1;fillColor=#FF9933;" vertex="1" parent="qgzRwup3HeDBknNR_gVY-59">
          <mxGeometry x="40" y="20" width="100" height="70" as="geometry" />
        </mxCell>
        <mxCell id="qgzRwup3HeDBknNR_gVY-61" value="Notebook" style="whiteSpace=wrap;html=1;fillColor=#FFF4C3;" vertex="1" parent="qgzRwup3HeDBknNR_gVY-59">
          <mxGeometry x="190" y="22" width="100" height="66" as="geometry" />
        </mxCell>
        <mxCell id="qgzRwup3HeDBknNR_gVY-62" value="" style="edgeStyle=elbowEdgeStyle;elbow=horizontal;html=1;rounded=1;curved=0;sourcePerimeterSpacing=0;targetPerimeterSpacing=0;startSize=6;endSize=6;" edge="1" parent="qgzRwup3HeDBknNR_gVY-59" source="qgzRwup3HeDBknNR_gVY-60" target="qgzRwup3HeDBknNR_gVY-61">
          <mxGeometry relative="1" as="geometry" />
        </mxCell>
        <mxCell id="qgzRwup3HeDBknNR_gVY-72" value="" style="endArrow=classic;html=1;rounded=0;exitX=0.5;exitY=1;exitDx=0;exitDy=0;entryX=0.5;entryY=0;entryDx=0;entryDy=0;startArrow=classic;startFill=1;" edge="1" parent="1" source="qgzRwup3HeDBknNR_gVY-70" target="qgzRwup3HeDBknNR_gVY-45">
          <mxGeometry relative="1" as="geometry">
            <mxPoint x="480" y="-378" as="sourcePoint" />
            <mxPoint x="580" y="-378" as="targetPoint" />
          </mxGeometry>
        </mxCell>
        <mxCell id="qgzRwup3HeDBknNR_gVY-73" value="Comunicacion via&lt;div&gt;Websockets&lt;/div&gt;" style="edgeLabel;resizable=0;html=1;;align=center;verticalAlign=middle;" connectable="0" vertex="1" parent="qgzRwup3HeDBknNR_gVY-72">
          <mxGeometry relative="1" as="geometry" />
        </mxCell>
        <mxCell id="v0rlY0u3KarLFHfXOZ2J-13" value="&lt;span style=&quot;color: rgb(0, 0, 0); font-family: Helvetica; font-size: 11px; font-style: normal; font-variant-ligatures: normal; font-variant-caps: normal; font-weight: 400; letter-spacing: normal; orphans: 2; text-align: center; text-indent: 0px; text-transform: none; widows: 2; word-spacing: 0px; -webkit-text-stroke-width: 0px; white-space: nowrap; background-color: rgb(255, 255, 255); text-decoration-thickness: initial; text-decoration-style: initial; text-decoration-color: initial; display: inline !important; float: none;&quot;&gt;Comunicacion via&lt;/span&gt;&lt;div style=&quot;forced-color-adjust: none; color: rgb(0, 0, 0); font-family: Helvetica; font-size: 11px; font-style: normal; font-variant-ligatures: normal; font-variant-caps: normal; font-weight: 400; letter-spacing: normal; orphans: 2; text-align: center; text-indent: 0px; text-transform: none; widows: 2; word-spacing: 0px; -webkit-text-stroke-width: 0px; white-space: nowrap; text-decoration-thickness: initial; text-decoration-style: initial; text-decoration-color: initial;&quot;&gt;LoraWAN&lt;/div&gt;" style="edgeStyle=orthogonalEdgeStyle;curved=1;rounded=0;orthogonalLoop=1;jettySize=auto;html=1;exitX=0.5;exitY=1;exitDx=0;exitDy=0;entryX=1;entryY=0.5;entryDx=0;entryDy=0;" edge="1" parent="1" source="qgzRwup3HeDBknNR_gVY-21" target="qgzRwup3HeDBknNR_gVY-6">
          <mxGeometry x="0.3333" y="-10" relative="1" as="geometry">
            <mxPoint as="offset" />
          </mxGeometry>
        </mxCell>
        <mxCell id="E5JlNRnUBhVRI6DktgL6-2" value="Otros servicios" style="swimlane;horizontal=0;whiteSpace=wrap;html=1;" vertex="1" parent="1">
          <mxGeometry x="875" y="-485" width="200" height="143" as="geometry" />
        </mxCell>
        <mxCell id="v0rlY0u3KarLFHfXOZ2J-19" value="Proceso para leer la base de datos" style="whiteSpace=wrap;html=1;fillColor=#FFFF66;" vertex="1" parent="E5JlNRnUBhVRI6DktgL6-2">
          <mxGeometry x="50" y="46.5" width="100" height="50" as="geometry" />
        </mxCell>
        <mxCell id="E5JlNRnUBhVRI6DktgL6-6" value="Método GET" style="edgeLabel;resizable=0;html=1;;align=center;verticalAlign=middle;" connectable="0" vertex="1" parent="1">
          <mxGeometry x="975" y="-550" as="geometry" />
        </mxCell>
        <mxCell id="tWytZAeQNW5-owIEGGo--2" style="edgeStyle=orthogonalEdgeStyle;curved=1;rounded=0;orthogonalLoop=1;jettySize=auto;html=1;exitX=0.75;exitY=1;exitDx=0;exitDy=0;" edge="1" parent="1" source="v0rlY0u3KarLFHfXOZ2J-19" target="qgzRwup3HeDBknNR_gVY-61">
          <mxGeometry relative="1" as="geometry" />
        </mxCell>
        <mxCell id="tWytZAeQNW5-owIEGGo--3" style="edgeStyle=orthogonalEdgeStyle;curved=1;rounded=0;orthogonalLoop=1;jettySize=auto;html=1;exitX=0.25;exitY=1;exitDx=0;exitDy=0;entryX=1;entryY=0.5;entryDx=0;entryDy=0;" edge="1" parent="1" source="v0rlY0u3KarLFHfXOZ2J-19" target="qgzRwup3HeDBknNR_gVY-45">
          <mxGeometry relative="1" as="geometry">
            <Array as="points">
              <mxPoint x="950" y="-260" />
              <mxPoint x="760" y="-260" />
              <mxPoint x="760" y="-144" />
            </Array>
          </mxGeometry>
        </mxCell>
      </root>
    </mxGraphModel>
  </diagram>
</mxfile>
